<svg width="464" height="236" viewBox="0 0 464 236" fill="none" xmlns="http://www.w3.org/2000/svg">
<path d="M172.057 119.174H151V66.5658L172.057 87.6228V119.174Z" fill="white"/>
<path d="M151 37.3588V3.39682L227.415 79.8118V25.8118H247.453L247.452 119.174H230.471L151 37.3588Z" fill="white"/>
<path d="M221.261 40.755L201.414 20.908V-2.28882e-05H245.852H266.863C275.241 -2.28882e-05 284.389 0.322983 291.87 4.54398C299.709 8.96798 306.333 16.256 309.542 24.69C313.627 35.428 313.414 48.086 307.657 58.304C301.228 69.715 287.948 77.287 275.318 79.507L309.592 119.309C300.182 119.316 290.771 119.323 281.361 119.33C280.69 119.331 280.004 119.329 279.371 119.108C278.521 118.812 277.855 118.157 277.219 117.521C269.587 109.889 262.309 97.055 254.677 89.423C254.041 88.788 253.386 88.121 253.092 87.272C252.874 86.643 252.872 85.963 252.872 85.298C252.878 78.264 252.883 71.231 252.888 64.197C252.89 62.43 252.891 60.662 252.893 58.895C252.893 58.316 252.683 57.297 253.119 56.957C253.733 56.478 255.084 56.768 255.812 56.766C257.48 56.761 259.152 56.834 260.823 56.868C266.002 56.971 271.232 56.937 276.405 56.624C280.677 56.366 284.631 55.245 287.428 51.812C290.107 48.441 291.263 44.065 291.229 39.806C291.153 30.589 285.224 21.651 275.457 21.055C262.056 20.238 248.354 21.057 234.924 21.057H221.261V40.755Z" fill="white"/>
<path d="M29.89 173.07H38.08C34.58 173.07 34.58 176.57 34.58 176.57V222.07H33.39L5.39 177.27V218.57C5.39 218.57 5.39 222.07 8.89 222.07H0.77C4.27 222.07 4.27 218.57 4.27 218.57V176.57C4.27 176.57 4.27 173.07 0.77 173.07H9.8L33.39 210.87V176.57C33.39 176.57 33.39 173.07 29.89 173.07ZM69.8742 220.88C74.3542 220.88 75.3342 216.54 75.4042 216.19L74.2142 222.07H38.0942C41.5942 222.07 41.5942 218.57 41.5942 218.57V176.57C41.5942 176.57 41.5942 173.07 38.0942 173.07H73.0942L74.2142 178.88C74.1442 178.53 73.1642 174.19 68.6842 174.19H48.5242V196.94H64.9042C64.9042 196.94 68.4042 196.94 68.4042 193.44V201.63C68.4042 198.13 64.9042 198.13 64.9042 198.13H48.5242V220.88H69.8742ZM127.352 173H135.542C132.042 173 130.642 176.5 130.642 176.5L113.352 222H112.162L104.042 200.58L95.8519 222H94.6619L77.3719 176.5C77.3719 176.5 75.9719 173 72.5419 173H86.5419C83.0419 173 84.3719 176.5 84.3719 176.5L98.1619 212.83L103.412 199.04L94.8719 176.5C94.8719 176.5 93.4719 173 90.0419 173H104.042C100.542 173 101.872 176.5 101.872 176.5L115.662 212.83L129.522 176.5C129.522 176.5 130.852 173 127.352 173ZM178.256 222C181.686 222 178.886 218.57 178.886 218.57L165.656 202.19H160.756V218.5C160.756 218.5 160.756 222 164.256 222H150.256C153.686 222 153.686 218.5 153.686 218.5V176.5C153.686 176.5 153.686 173 150.256 173H167.756C183.436 173 191.066 178.88 191.066 187.63C191.066 195.47 184.976 200.93 172.446 201.98L185.886 218.5C185.886 218.5 188.756 222 192.256 222H178.256ZM160.756 174.19V201H167.756C178.256 201 183.506 196.1 183.506 187.63C183.506 179.16 178.256 174.19 167.756 174.19H160.756ZM220.184 222C223.684 222 222.284 218.5 222.284 218.5L218.294 208H198.624L194.634 218.5C194.634 218.5 193.304 222 196.804 222H188.684C192.114 222 193.514 218.57 193.514 218.57L210.804 173H211.994L229.284 218.57C229.284 218.57 230.684 222 234.184 222H220.184ZM199.114 206.88H217.874L208.494 182.24L199.114 206.88ZM261.288 222C264.788 222 261.008 218.57 261.008 218.57L242.668 201.7V218.5C242.668 218.5 242.668 222 246.168 222H232.168C235.668 222 235.668 218.5 235.668 218.5V176.5C235.668 176.5 235.668 173 232.168 173H246.168C242.668 173 242.668 176.5 242.668 176.5V196.38L263.458 176.5C263.458 176.5 267.168 173 263.668 173H271.788C268.288 173 264.648 176.5 264.648 176.5L243.788 196.38L268.008 218.5C268.008 218.5 271.788 222 275.288 222H261.288ZM329.325 198.69C332.825 198.69 332.825 202.19 332.825 202.19V215C329.885 218.85 324.635 222.63 315.325 222.63C301.745 222.63 290.825 211.36 290.825 197.5C290.825 183.71 301.745 172.44 315.325 172.44C323.445 172.44 327.575 175.66 331.635 178.81L329.255 187C327.225 180 322.885 173.63 315.605 173.63C305.385 173.63 298.385 184.34 298.385 197.5C298.385 210.73 305.665 220.88 317.355 220.88C320.365 220.88 323.305 220.25 325.825 219.13V202.19C325.825 202.19 325.825 198.69 322.325 198.69H329.325ZM359.212 172.44C372.722 172.44 383.712 183.71 383.712 197.57C383.712 211.36 372.722 222.63 359.212 222.63C345.632 222.63 334.712 211.36 334.712 197.57C334.712 183.71 345.632 172.44 359.212 172.44ZM359.212 221.44C368.522 221.44 376.082 210.73 376.082 197.5C376.082 184.34 368.522 173.63 359.212 173.63C349.832 173.63 342.272 184.34 342.272 197.5C342.272 210.73 349.832 221.44 359.212 221.44ZM416.114 220.88C420.594 220.88 421.574 216.54 421.644 216.19L420.454 222.07H384.334C387.834 222.07 387.834 218.57 387.834 218.57V176.57C387.834 176.57 387.834 173.07 384.334 173.07H398.334C394.834 173.07 394.834 176.57 394.834 176.57V220.88H416.114ZM437.843 173C451.353 173 462.343 183.99 462.343 197.5C462.343 211.08 451.353 222 437.843 222H420.343C423.843 222 423.843 218.5 423.843 218.5V176.5C423.843 176.5 423.843 173 420.343 173H437.843ZM437.843 220.88C447.153 220.88 454.713 210.45 454.713 197.5C454.713 184.62 447.153 174.19 437.843 174.19H430.843V220.88H437.843Z" fill="white"/>
</svg>
