<svg width="523" height="220" viewBox="0 0 523 220" fill="none" xmlns="http://www.w3.org/2000/svg">
<path d="M198.135 119.174H177.078V66.5658L198.135 87.6228V119.174Z" fill="white"/>
<path d="M177.078 37.3588V3.39682L253.493 79.8118V25.8118H273.531L273.53 119.174H256.549L177.078 37.3588Z" fill="white"/>
<path d="M247.339 40.755L227.492 20.908V-2.28882e-05H271.93H292.941C301.319 -2.28882e-05 310.467 0.322983 317.948 4.54398C325.787 8.96798 332.411 16.256 335.62 24.69C339.705 35.428 339.492 48.086 333.735 58.304C327.306 69.715 314.026 77.287 301.396 79.507L335.67 119.309C326.26 119.316 316.849 119.323 307.439 119.33C306.768 119.331 306.082 119.329 305.449 119.108C304.599 118.812 303.933 118.157 303.297 117.521C295.665 109.889 288.387 97.055 280.755 89.423C280.119 88.788 279.464 88.121 279.17 87.272C278.952 86.643 278.95 85.963 278.95 85.298C278.956 78.264 278.961 71.231 278.966 64.197C278.968 62.43 278.969 60.662 278.971 58.895C278.971 58.316 278.761 57.297 279.197 56.957C279.811 56.478 281.162 56.768 281.89 56.766C283.558 56.761 285.23 56.834 286.901 56.868C292.08 56.971 297.31 56.937 302.483 56.624C306.755 56.366 310.709 55.245 313.506 51.812C316.185 48.441 317.341 44.065 317.307 39.806C317.231 30.589 311.302 21.651 301.535 21.055C288.134 20.238 274.432 21.057 261.002 21.057H247.339V40.755Z" fill="white"/>
<path d="M41.8519 176.086V218.914H33.6457L9.64858 189.741H9.22583V218.914H0V176.086H8.256L32.2282 205.279H32.6758V176.086H41.8519Z" fill="white"/>
<path d="M51.084 218.914V176.086H84.2074V182.589H60.3098V194.217H82.4916V200.721H60.3098V212.411H84.4064V218.914H51.084Z" fill="white"/>
<path d="M103.517 218.914L89.1436 176.086H99.0658L108.242 207.559H108.714L118.512 176.086H127.539L137.362 207.58H137.809L146.985 176.086H156.907L142.534 218.914H133.433L123.237 188.863H122.839L112.619 218.914H103.517Z" fill="white"/>
<path d="M179.033 218.914V176.086H198.132C202.044 176.086 205.326 176.657 207.979 177.8C210.648 178.944 212.662 180.547 214.022 182.61C215.398 184.66 216.086 187.051 216.086 189.783C216.086 192.53 215.39 194.914 213.997 196.935C212.621 198.943 210.59 200.497 207.904 201.599C205.219 202.686 201.92 203.23 198.007 203.23H184.405V196.789H196.764C199.052 196.789 200.925 196.524 202.384 195.994C203.843 195.451 204.92 194.663 205.617 193.631C206.329 192.586 206.686 191.303 206.686 189.783C206.686 188.264 206.329 186.967 205.617 185.894C204.904 184.806 203.818 183.984 202.359 183.426C200.9 182.854 199.018 182.568 196.714 182.568H188.259V218.914H179.033ZM205.343 199.508L217.951 218.914H207.656L195.272 199.508H205.343Z" fill="white"/>
<path d="M230.298 218.914H220.45L238.379 176.086H249.769L267.723 218.914H257.876L244.273 184.869H243.875L230.298 218.914ZM230.621 202.122H257.478V208.354H230.621V202.122Z" fill="white"/>
<path d="M273.61 218.914V176.086H282.836V195.764H283.458L303.327 176.086H314.592L294.897 195.304L314.766 218.914H303.675L288.481 200.553L282.836 206.158V218.914H273.61Z" fill="white"/>
<path d="M370.848 189.762C370.434 188.633 369.862 187.622 369.133 186.73C368.42 185.824 367.558 185.05 366.546 184.409C365.552 183.767 364.408 183.286 363.115 182.966C361.822 182.631 360.412 182.464 358.887 182.464C356.152 182.464 353.715 183.042 351.576 184.2C349.438 185.357 347.755 187.058 346.528 189.302C345.318 191.533 344.713 194.252 344.713 197.458C344.713 200.693 345.318 203.432 346.528 205.677C347.738 207.921 349.421 209.629 351.576 210.8C353.731 211.958 356.235 212.536 359.086 212.536C361.672 212.536 363.91 212.118 365.8 211.281C367.707 210.445 369.174 209.26 370.202 207.726C371.23 206.179 371.744 204.366 371.744 202.289L373.833 202.561H360.006V196.496H380.671V201.641C380.671 205.307 379.743 208.479 377.886 211.156C376.029 213.833 373.476 215.896 370.227 217.346C366.977 218.782 363.247 219.5 359.036 219.5C354.345 219.5 350.225 218.615 346.677 216.844C343.146 215.06 340.386 212.529 338.396 209.253C336.424 205.963 335.437 202.059 335.437 197.542C335.437 194.084 336.017 190.996 337.178 188.278C338.355 185.559 339.996 183.252 342.102 181.356C344.207 179.446 346.677 177.996 349.512 177.006C352.347 176.002 355.431 175.5 358.763 175.5C361.581 175.5 364.209 175.849 366.646 176.546C369.083 177.229 371.246 178.205 373.136 179.473C375.043 180.742 376.609 182.248 377.836 183.99C379.063 185.733 379.867 187.657 380.248 189.762H370.848Z" fill="white"/>
<path d="M434.279 197.5C434.279 202.115 433.251 206.067 431.196 209.357C429.156 212.634 426.371 215.143 422.84 216.886C419.325 218.629 415.338 219.5 410.879 219.5C406.419 219.5 402.424 218.629 398.893 216.886C395.378 215.129 392.593 212.613 390.537 209.337C388.498 206.046 387.479 202.101 387.479 197.5C387.479 192.885 388.498 188.94 390.537 185.663C392.593 182.373 395.378 179.857 398.893 178.114C402.424 176.371 406.419 175.5 410.879 175.5C415.338 175.5 419.325 176.371 422.84 178.114C426.371 179.857 429.156 182.373 431.196 185.663C433.251 188.94 434.279 192.885 434.279 197.5ZM425.004 197.5C425.004 194.252 424.398 191.512 423.188 189.281C421.995 187.037 420.337 185.343 418.215 184.2C416.093 183.042 413.647 182.464 410.879 182.464C408.11 182.464 405.665 183.042 403.543 184.2C401.421 185.343 399.755 187.037 398.545 189.281C397.351 191.512 396.754 194.252 396.754 197.5C396.754 200.748 397.351 203.495 398.545 205.74C399.755 207.97 401.421 209.664 403.543 210.821C405.665 211.965 408.11 212.536 410.879 212.536C413.647 212.536 416.093 211.965 418.215 210.821C420.337 209.664 421.995 207.97 423.188 205.74C424.398 203.495 425.004 200.748 425.004 197.5Z" fill="white"/>
<path d="M442.181 218.914V176.086H451.407V212.411H473.837V218.914H442.181Z" fill="white"/>
<path d="M498.282 218.914H481.024V176.086H498.63C503.686 176.086 508.03 176.943 511.66 178.658C515.308 180.359 518.109 182.805 520.066 185.998C522.022 189.191 523 193.011 523 197.458C523 201.92 522.014 205.753 520.041 208.96C518.085 212.167 515.258 214.627 511.561 216.342C507.881 218.057 503.454 218.914 498.282 218.914ZM490.25 212.202H497.834C501.382 212.202 504.341 211.658 506.712 210.57C509.082 209.469 510.865 207.831 512.058 205.656C513.252 203.467 513.849 200.734 513.849 197.458C513.849 194.182 513.252 191.463 512.058 189.302C510.865 187.127 509.099 185.503 506.762 184.43C504.441 183.342 501.556 182.798 498.108 182.798H490.25V212.202Z" fill="white"/>
</svg>
